PathFileType	4	(X/Y/Z)	C:\Users\Basilio\Documents\Thesis Gigler\squatting_fais\c3dfiles\044\SLS_front_pre2\markers_experimental.trc
DataRate	CameraRate	NumFrames	NumMarkers	Units	OrigDataRate	OrigDataStartFrame	OrigNumFrames
200.000000	200.000000	4	60	mm	200.000000	0	1620
Frame#	Time	FHD			LBHD			RBHD			C7			T10			CLAV			LSHO			LUUPA			LMUPA			LDUPA			LLEP			LMEP			LRAD			LRFIN			RSHO			RUPA1			RMUPA			RDUPA			RLEP			RMEP			RUL			LASI			RASI			USACR			LSACR			RSACR			LTHI1			LTHI2			LTHI3			LTHI4			LLFC			LMFC			LTIB1			LTIB2			LTIB3			LTIB4			LLMAL			LMMAL			LHEE			LMT1			LMT2			LMT5			RTHI			RTHI2			RTHI3			RTHI4			RLFC			RMFC			RTIB1			RTIB2			RTIB3			RTIB4			RLMAL			RMMAL			RHEE			RMT1			RMT2			RMT5			RUFIN			LUL			
		X1	Y1	Z1	X2	Y2	Z2	X3	Y3	Z3	X4	Y4	Z4	X5	Y5	Z5	X6	Y6	Z6	X7	Y7	Z7	X8	Y8	Z8	X9	Y9	Z9	X10	Y10	Z10	X11	Y11	Z11	X12	Y12	Z12	X13	Y13	Z13	X14	Y14	Z14	X15	Y15	Z15	X16	Y16	Z16	X17	Y17	Z17	X18	Y18	Z18	X19	Y19	Z19	X20	Y20	Z20	X21	Y21	Z21	X22	Y22	Z22	X23	Y23	Z23	X24	Y24	Z24	X25	Y25	Z25	X26	Y26	Z26	X27	Y27	Z27	X28	Y28	Z28	X29	Y29	Z29	X30	Y30	Z30	X31	Y31	Z31	X32	Y32	Z32	X33	Y33	Z33	X34	Y34	Z34	X35	Y35	Z35	X36	Y36	Z36	X37	Y37	Z37	X38	Y38	Z38	X39	Y39	Z39	X40	Y40	Z40	X41	Y41	Z41	X42	Y42	Z42	X43	Y43	Z43	X44	Y44	Z44	X45	Y45	Z45	X46	Y46	Z46	X47	Y47	Z47	X48	Y48	Z48	X49	Y49	Z49	X50	Y50	Z50	X51	Y51	Z51	X52	Y52	Z52	X53	Y53	Z53	X54	Y54	Z54	X55	Y55	Z55	X56	Y56	Z56	X57	Y57	Z57	X58	Y58	Z58	X59	Y59	Z59	X60	Y60	Z60	

1	0	-225.3397674560547	1792.108764648438	-871.5080566406252	-361.8693847656251	1761.579711914063	-944.4753417968752	-399.3411865234376	1743.68994140625	-783.3065185546877	-419.8817138671876	1557.752685546875	-873.9766845703127	-386.6046142578126	1253.391479492188	-876.0407714843752	-277.1506042480469	1538.851806640625	-877.3317871093752	-328.7843017578126	1590.65966796875	-1021.03857421875	-160.7527313232422	1571.63671875	-1113.7939453125	-135.7244415283203	1581.832397460938	-1070.630737304688	-91.88584899902345	1566.454711914063	-1110.861572265625	-35.46150207519532	1565.42333984375	-1098.506713867188	-44.67753219604493	1491.019653320313	-1085.854125976563	218.4994354248047	1578.51171875	-983.0039062500002	237.0717163085938	1592.364990234375	-881.9692993164065	-330.9965820312501	1568.203369140625	-714.6525878906251	-168.5902252197266	1540.068237304688	-622.9951171875001	-141.6170501708985	1559.08203125	-661.9885864257814	-98.59364318847659	1540.502685546875	-623.2167968750001	-38.41292953491212	1545.711303710938	-635.0649414062501	-40.7322006225586	1467.142700195313	-654.5961914062501	218.116195678711	1573.414428710938	-750.5250854492189	-190.4278106689453	1079.066162109375	-992.006042480469	-172.1707763671875	1060.79736328125	-775.591735839844	-354.4664611816407	1114.069946289063	-867.969665527344	-358.5198974609376	1081.7841796875	-895.0505371093752	-352.3487548828126	1083.479370117188	-837.8062133789065	-294.1678771972657	842.758728027344	-1064.803466796875	-263.7744750976563	763.8270263671876	-1068.391357421875	-215.7118682861329	764.4224243164064	-1063.317626953125	-293.2112731933594	712.1439819335939	-1056.567626953125	-284.0221862792969	551.2249145507814	-1050.82373046875	-270.6999206542969	539.0966796875001	-929.4379882812502	-269.1386108398438	371.6217346191407	-989.6983032226565	-298.2142028808594	330.8128662109376	-1062.855224609375	-268.2050476074219	325.9180908203126	-1027.356689453125	-285.5974731445313	247.1545104980469	-1002.264770507813	-343.4825439453126	134.6048126220703	-1053.723876953125	-322.6053771972657	138.4309844970703	-970.239929199219	-407.4269104003907	111.3257675170899	-1006.76025390625	-202.4002838134766	62.27983856201173	-985.3308105468752	-199.9047241210938	62.53426361083986	-1031.423583984375	-238.1742706298829	51.03002929687501	-1079.092895507813	-263.7856140136719	788.4119262695315	-700.9649047851564	-222.5571441650391	734.5535888671876	-705.9829711914064	-191.725830078125	737.4389038085939	-713.9958496093751	-249.0517730712891	655.4754028320314	-719.8989868164064	-254.2496795654297	540.6239013671876	-728.9143066406251	-273.2961120605469	538.0804443359376	-851.920104980469	-230.4527130126954	407.9173583984376	-763.0034179687501	-301.8040771484376	346.0183105468751	-705.9516601562501	-264.3191528320313	333.6343688964844	-729.6403198242189	-266.1612243652344	282.7723083496094	-757.0732421875001	-350.0649108886719	141.7755889892578	-733.8914794921876	-340.6341857910157	146.117172241211	-817.3696289062502	-416.6461181640626	115.558708190918	-770.0760498046877	-217.244369506836	67.85507965087892	-818.1774902343752	-207.4781036376954	61.71179962158205	-782.2634887695315	-240.3430328369141	47.84156036376954	-725.4412841796876	nan	nan	nan	nan	nan	nan	
2	0.005	-225.3416442871094	1792.199096679688	-871.5530395507815	-361.7946472167969	1761.579956054688	-944.518737792969	-399.3081054687501	1743.74755859375	-783.289733886719	-419.8079528808595	1557.780395507813	-873.9271240234377	-386.6046142578126	1253.391479492188	-876.0407714843752	-277.1322326660157	1538.853759765625	-877.2985839843752	-328.6464538574219	1590.680053710938	-1021.024963378906	-160.6782684326172	1571.588989257813	-1113.764038085938	-135.6876831054688	1581.774047851563	-1070.571411132813	-91.81682586669923	1566.379516601563	-1110.788940429688	-35.43856430053712	1565.392211914063	-1098.408813476563	-44.66953277587891	1490.914794921875	-1085.8271484375	218.564926147461	1578.363403320313	-982.9624023437502	237.1368713378907	1592.734008789063	-882.4243164062502	-330.9557800292969	1568.263793945313	-714.6218261718751	-168.512680053711	1540.152954101563	-623.0469970703126	-141.547348022461	1559.073608398438	-661.9813232421876	-98.46335601806643	1540.51123046875	-623.1987304687501	-38.32036209106446	1545.702026367188	-635.0988159179689	-40.62690734863282	1467.086059570313	-654.5632934570314	218.1990356445313	1573.298217773438	-750.4440917968751	-190.4295959472657	1079.051635742188	-991.9738769531252	-172.2021179199219	1060.814208984375	-775.560485839844	-354.4869079589844	1114.099609375	-867.8903808593752	-358.6041564941407	1081.777587890625	-894.9788208007815	-352.3466796875001	1083.454833984375	-837.737243652344	-294.2605590820313	842.7811279296877	-1064.767944335938	-263.8473205566407	763.8474121093751	-1068.363525390625	-215.7943878173829	764.4282836914064	-1063.339965820313	-293.3350524902344	712.1386718750001	-1056.530639648438	-284.1142883300782	551.2366943359376	-1050.801147460938	-270.6999206542969	539.0966796875001	-929.437927246094	-269.1448059082032	371.6376037597657	-989.698181152344	-299.0988464355469	330.0623168945313	-1062.938720703125	-268.2879333496094	325.9030456542969	-1027.319946289063	-285.5569152832032	247.1545867919922	-1002.2490234375	-343.5025634765626	134.6307830810547	-1053.748168945313	-322.6199340820313	138.4279174804688	-970.207458496094	-407.436004638672	111.3794021606446	-1006.72412109375	-202.3810424804688	62.24163055419923	-985.328308105469	-199.884262084961	62.54883193969728	-1031.44091796875	-238.2722778320313	50.99138259887697	-1079.062744140625	-263.8244628906251	788.3655395507815	-700.9524536132814	-222.5956726074219	734.5167236328126	-705.9319458007814	-191.6792907714844	737.4013671875001	-713.9828491210939	-248.6264038085938	655.0448608398439	-719.1592407226564	-254.2225646972657	540.6247558593751	-728.9332275390626	-273.2794189453126	538.0236206054689	-851.9268188476565	-230.4567871093751	407.9122924804689	-763.0070190429689	-301.8092956542969	346.0437316894532	-705.9514770507814	-264.3282775878907	333.6044616699219	-729.6716308593751	-266.1710510253907	282.7702636718751	-757.0675048828126	-350.0833435058594	141.7675323486328	-733.8674316406251	-340.6841430664063	146.152816772461	-817.3818969726565	-416.6037902832032	115.5796966552735	-770.1174316406252	-217.2815093994141	67.82655334472658	-818.1653442382815	-207.4711456298829	61.69294738769533	-782.2593994140627	-240.3640441894532	47.85778045654298	-725.4756469726564	nan	nan	nan	nan	nan	nan	
3	0.01	-225.3502197265626	1792.205078125	-871.619079589844	-361.7968444824219	1761.520263671875	-944.5347290039065	-399.1902770996095	1743.054931640625	-783.0806884765627	-419.7672729492189	1557.826904296875	-873.898376464844	-386.620819091797	1253.427734375	-875.9188232421877	-277.0643005371094	1538.864501953125	-877.263366699219	-328.6117553710938	1590.673828125	-1020.998291015625	-160.6205139160157	1571.547485351563	-1113.713256835938	-135.578842163086	1581.684326171875	-1070.515869140625	-91.75975036621095	1566.349365234375	-1110.764038085938	-35.32674789428712	1565.315185546875	-1098.365844726563	-44.63825607299805	1490.859985351563	-1085.690185546875	218.664535522461	1578.189453125	-982.9258422851565	237.0269775390626	1593.646362304688	-883.4919433593752	-330.8690185546876	1568.26220703125	-714.5990600585939	-168.4219512939453	1540.195068359375	-623.0200805664064	-141.3415222167969	1559.009155273438	-662.0442504882814	-98.40354919433597	1540.505249023438	-623.1817016601564	-38.25469970703126	1545.652954101563	-635.1049804687501	-40.5849952697754	1467.026977539063	-654.5238647460939	218.2502746582032	1573.131958007813	-750.4592285156251	-190.566650390625	1079.037231445313	-991.899353027344	-172.218734741211	1060.818603515625	-775.579528808594	-354.4998168945313	1114.084716796875	-867.832214355469	-358.6685485839844	1081.809448242188	-894.9016113281252	-352.3423156738282	1083.475341796875	-837.704772949219	-294.3168029785157	842.781188964844	-1064.7041015625	-263.9594116210938	763.8726196289064	-1068.354736328125	-215.8936157226563	764.4292602539064	-1063.293090820313	-293.3327026367188	712.1425170898439	-1056.491821289063	-284.1456298828126	551.2661743164064	-1050.795654296875	-270.6888732910157	539.0861816406251	-929.401794433594	-269.1853027343751	371.5768127441407	-989.6580200195315	-298.2931213378907	330.8598327636719	-1062.851196289063	-268.2850952148438	325.8944396972657	-1027.310546875	-285.6112060546876	247.1173095703126	-1002.219848632813	-343.4799194335938	134.640625	-1053.730712890625	-322.5951232910157	138.4461212158203	-970.230163574219	-407.4122314453126	111.3695983886719	-1006.759582519531	-202.3949432373047	62.21575164794923	-985.3001098632815	-199.8695068359376	62.53567504882814	-1031.429443359375	-238.2647247314454	50.9799156188965	-1078.993774414063	-263.8246765136719	788.3467407226565	-700.9368896484376	-222.5530700683594	734.4729614257814	-705.9397583007814	-191.6776428222657	737.3980712890626	-713.9817504882814	-248.6328582763672	655.0391845703126	-719.1585083007814	-254.2113037109376	540.6259155273439	-728.9333496093751	-273.2761230468751	538.0650024414064	-851.9232177734377	-230.4265899658204	407.9026489257814	-762.9986572265626	-301.7766723632813	346.0159912109376	-705.9450073242189	-264.3126831054688	333.6100463867188	-729.6480712890626	-266.1400756835938	282.7638549804688	-757.0593261718751	-350.0726013183594	141.7713775634766	-733.8693237304689	-340.7738952636719	146.1845397949219	-817.348571777344	-416.613494873047	115.5674514770508	-770.1164550781252	-217.2451324462891	67.86921691894533	-818.1546630859377	-207.4711456298829	61.69294738769533	-782.2593994140627	-240.3417510986329	47.84134674072266	-725.4409179687501	nan	nan	nan	nan	nan	nan	
4	0.015	-225.3692474365235	1792.185180664063	-871.6821289062502	-361.7898254394532	1761.562866210938	-944.5285644531252	-399.2229003906251	1743.878540039063	-783.3065185546877	-419.747283935547	1557.855590820313	-873.8770141601565	-386.6272277832032	1253.478637695313	-875.9194335937502	-277.0623779296876	1538.843627929688	-877.265075683594	-328.4594421386719	1590.668334960938	-1020.994567871094	-160.5767669677735	1571.486450195313	-1113.671630859375	-135.5165252685547	1581.62060546875	-1070.462524414063	-91.7465286254883	1566.243896484375	-1110.666015625	-35.21173477172852	1565.250122070313	-1098.339111328125	-44.67316818237305	1490.745361328125	-1085.596435546875	218.7125549316407	1577.992553710938	-982.8565063476565	237.4109039306641	1593.031372070313	-881.887878417969	-330.8039245605469	1568.309448242188	-714.6049194335939	-168.3886871337891	1540.215087890625	-623.0352172851564	-141.2188720703125	1559.02392578125	-662.0247192382814	-98.3517761230469	1540.4892578125	-623.1920166015626	-38.19099044799805	1545.595458984375	-635.0972290039064	-40.33109283447266	1466.782958984375	-654.3373413085939	218.3546295166016	1572.857543945313	-750.4006347656251	-190.6976318359375	1079.028198242188	-991.8818969726565	-172.2596740722657	1060.840454101563	-775.5612792968752	-354.4998168945313	1114.084716796875	-867.8322753906252	-358.6729736328126	1081.8076171875	-894.8699951171877	-352.3895263671876	1083.482055664063	-837.6854248046877	-294.4008789062501	842.8013916015627	-1064.693969726563	-263.9693908691407	763.8793334960939	-1068.346435546875	-215.9699249267579	764.4108276367189	-1063.341674804688	-293.4223327636719	712.1539916992189	-1056.461791992188	-284.1803283691407	551.2533569335939	-1050.767822265625	-270.7550048828126	539.1038818359376	-929.4060668945315	-269.1949462890626	371.6190795898438	-989.661560058594	-298.3033752441407	330.8775024414063	-1062.849853515625	-268.4129638671876	325.8396301269532	-1027.319458007813	-285.6756591796876	247.1357421875001	-1002.23193359375	-343.5274658203126	134.6716918945313	-1053.727416992188	-322.5765686035157	138.4275054931641	-970.2448730468752	-407.4124145507814	111.3699569702149	-1006.760192871094	-202.3733367919922	62.2558937072754	-985.3267211914065	-199.9020233154297	62.55335998535158	-1031.454711914063	-238.3064270019532	50.93752288818361	-1078.974975585938	-263.8231506347657	788.344665527344	-700.9490356445314	-222.5374755859376	734.4356689453126	-705.9379882812501	-191.6767120361328	737.3966674804689	-713.9815063476564	-249.0083160400391	655.4572143554689	-719.8400878906251	-254.1871948242188	540.5939941406251	-728.8650512695314	-273.2544860839844	538.0452270507814	-851.910583496094	-230.4060363769532	407.8822326660157	-763.0345458984376	-301.7755126953126	346.0132751464844	-705.9346313476564	-264.2965087890626	333.5423278808594	-729.6770019531251	-266.1400756835938	282.7638549804688	-757.0593261718751	-350.0682983398438	141.7787628173828	-733.8873901367189	-340.7113952636719	146.16748046875	-817.3320922851565	-416.643768310547	115.5735397338867	-770.0598754882815	-217.2626953125001	67.82699584960939	-818.1885986328127	-207.4781036376954	61.71179962158205	-782.2634887695315	-240.3526000976563	47.86201477050782	-725.4456787109376	nan	nan	nan	nan	nan	nan	
